<?xml version="1.0" encoding="UTF-8" standalone="no"?>
<!DOCTYPE svg PUBLIC "-//W3C//DTD SVG 1.1//EN"
 "http://www.w3.org/Graphics/SVG/1.1/DTD/svg11.dtd">
<!-- Generated by graphviz version 2.43.0 (0)
 -->
<!-- Title: model_graph Pages: 1 -->
<svg width="438pt" height="390pt"
 viewBox="0.00 0.00 438.00 390.00" xmlns="http://www.w3.org/2000/svg" xmlns:xlink="http://www.w3.org/1999/xlink">
<g id="graph0" class="graph" transform="scale(1 1) rotate(0) translate(4 386)">
<title>model_graph</title>
<polygon fill="white" stroke="transparent" points="-4,4 -4,-386 434,-386 434,4 -4,4"/>
<g id="clust1" class="cluster">
<title>cluster_self_order</title>
<path fill="none" stroke="#698b22" d="M12,0C12,0 418,0 418,0 424,0 430,-6 430,-12 430,-12 430,-370 430,-370 430,-376 424,-382 418,-382 418,-382 12,-382 12,-382 6,-382 0,-376 0,-370 0,-370 0,-12 0,-12 0,-6 6,0 12,0"/>
<text text-anchor="start" x="132" y="-366.5" font-family="Roboto" font-size="8.00"> &#160;&#160;&#160;&#160;&#160;&#160;&#160;&#160;&#160;</text>
<text text-anchor="start" x="155" y="-366.5" font-family="Roboto" font-size="10.00"> &#160;&#160;&#160;&#160;&#160;&#160;&#160;&#160;&#160;</text>
<text text-anchor="start" x="186" y="-366.5" font-family="Roboto" font-weight="bold" font-size="10.00">self_order</text>
<text text-anchor="start" x="244" y="-366.5" font-family="Roboto" font-size="10.00"> &#160;&#160;&#160;&#160;&#160;&#160;&#160;&#160;&#160;</text>
<text text-anchor="start" x="275" y="-366.5" font-family="Roboto" font-size="8.00"> &#160;&#160;&#160;&#160;&#160;&#160;&#160;&#160;&#160;</text>
</g>
<!-- self_order_models_Item -->
<g id="node1" class="node">
<title>self_order_models_Item</title>
<polygon fill="white" stroke="transparent" points="231.5,-12 231.5,-87 382.5,-87 382.5,-12 231.5,-12"/>
<polygon fill="#1b563f" stroke="transparent" points="233,-64.5 233,-85.5 382,-85.5 382,-64.5 233,-64.5"/>
<text text-anchor="start" x="265" y="-73.5" font-family="Roboto" font-size="8.00"> &#160;&#160;&#160;&#160;&#160;</text>
<text text-anchor="start" x="279" y="-73.5" font-family="Roboto" font-weight="bold" font-size="10.00" fill="white"> &#160;&#160;&#160;&#160;&#160;Item &#160;&#160;&#160;&#160;&#160;</text>
<text text-anchor="start" x="235" y="-57.1" font-family="Roboto" font-size="8.00"> &#160;&#160;&#160;&#160;&#160;</text>
<text text-anchor="start" x="249" y="-57.1" font-family="Roboto" font-weight="bold" font-size="8.00">id</text>
<text text-anchor="start" x="259" y="-57.1" font-family="Roboto" font-size="8.00"> &#160;&#160;&#160;&#160;&#160;</text>
<text text-anchor="start" x="293" y="-57.1" font-family="Roboto" font-size="8.00"> &#160;&#160;&#160;&#160;&#160;</text>
<text text-anchor="start" x="307" y="-57.1" font-family="Roboto" font-weight="bold" font-size="8.00">BigAutoField</text>
<text text-anchor="start" x="366" y="-57.1" font-family="Roboto" font-size="8.00"> &#160;&#160;&#160;&#160;&#160;</text>
<text text-anchor="start" x="235" y="-44.1" font-family="Roboto" font-size="8.00"> &#160;&#160;&#160;&#160;&#160;</text>
<text text-anchor="start" x="249" y="-44.1" font-family="Roboto" font-size="8.00" fill="#7b7b7b">image</text>
<text text-anchor="start" x="275" y="-44.1" font-family="Roboto" font-size="8.00"> &#160;&#160;&#160;&#160;&#160;</text>
<text text-anchor="start" x="293" y="-44.1" font-family="Roboto" font-size="8.00"> &#160;&#160;&#160;&#160;&#160;</text>
<text text-anchor="start" x="307" y="-44.1" font-family="Roboto" font-size="8.00" fill="#7b7b7b">FileField</text>
<text text-anchor="start" x="340" y="-44.1" font-family="Roboto" font-size="8.00"> &#160;&#160;&#160;&#160;&#160;</text>
<text text-anchor="start" x="235" y="-31.1" font-family="Roboto" font-size="8.00"> &#160;&#160;&#160;&#160;&#160;</text>
<text text-anchor="start" x="249" y="-31.1" font-family="Roboto" font-size="8.00">name</text>
<text text-anchor="start" x="273" y="-31.1" font-family="Roboto" font-size="8.00"> &#160;&#160;&#160;&#160;&#160;</text>
<text text-anchor="start" x="293" y="-31.1" font-family="Roboto" font-size="8.00"> &#160;&#160;&#160;&#160;&#160;</text>
<text text-anchor="start" x="307" y="-31.1" font-family="Roboto" font-size="8.00">CharField</text>
<text text-anchor="start" x="345" y="-31.1" font-family="Roboto" font-size="8.00"> &#160;&#160;&#160;&#160;&#160;</text>
<text text-anchor="start" x="235" y="-18.1" font-family="Roboto" font-size="8.00"> &#160;&#160;&#160;&#160;&#160;</text>
<text text-anchor="start" x="249" y="-18.1" font-family="Roboto" font-size="8.00">price</text>
<text text-anchor="start" x="270" y="-18.1" font-family="Roboto" font-size="8.00"> &#160;&#160;&#160;&#160;&#160;</text>
<text text-anchor="start" x="293" y="-18.1" font-family="Roboto" font-size="8.00"> &#160;&#160;&#160;&#160;&#160;</text>
<text text-anchor="start" x="307" y="-18.1" font-family="Roboto" font-size="8.00">IntegerField</text>
<text text-anchor="start" x="356" y="-18.1" font-family="Roboto" font-size="8.00"> &#160;&#160;&#160;&#160;&#160;</text>
<polygon fill="none" stroke="black" points="231.5,-12 231.5,-87 382.5,-87 382.5,-12 231.5,-12"/>
</g>
<!-- self_order_models_Topping -->
<g id="node2" class="node">
<title>self_order_models_Topping</title>
<polygon fill="white" stroke="transparent" points="16.5,-146.5 16.5,-208.5 165.5,-208.5 165.5,-146.5 16.5,-146.5"/>
<polygon fill="#1b563f" stroke="transparent" points="18,-186.5 18,-207.5 165,-207.5 165,-186.5 18,-186.5"/>
<text text-anchor="start" x="39" y="-195.5" font-family="Roboto" font-size="8.00"> &#160;&#160;&#160;&#160;&#160;</text>
<text text-anchor="start" x="53" y="-195.5" font-family="Roboto" font-weight="bold" font-size="10.00" fill="white"> &#160;&#160;&#160;&#160;&#160;Topping &#160;&#160;&#160;&#160;&#160;</text>
<text text-anchor="start" x="20" y="-179.1" font-family="Roboto" font-size="8.00"> &#160;&#160;&#160;&#160;&#160;</text>
<text text-anchor="start" x="34" y="-179.1" font-family="Roboto" font-weight="bold" font-size="8.00">id</text>
<text text-anchor="start" x="44" y="-179.1" font-family="Roboto" font-size="8.00"> &#160;&#160;&#160;&#160;&#160;</text>
<text text-anchor="start" x="76" y="-179.1" font-family="Roboto" font-size="8.00"> &#160;&#160;&#160;&#160;&#160;</text>
<text text-anchor="start" x="90" y="-179.1" font-family="Roboto" font-weight="bold" font-size="8.00">BigAutoField</text>
<text text-anchor="start" x="149" y="-179.1" font-family="Roboto" font-size="8.00"> &#160;&#160;&#160;&#160;&#160;</text>
<text text-anchor="start" x="20" y="-166.1" font-family="Roboto" font-size="8.00"> &#160;&#160;&#160;&#160;&#160;</text>
<text text-anchor="start" x="34" y="-166.1" font-family="Roboto" font-size="8.00">name</text>
<text text-anchor="start" x="58" y="-166.1" font-family="Roboto" font-size="8.00"> &#160;&#160;&#160;&#160;&#160;</text>
<text text-anchor="start" x="76" y="-166.1" font-family="Roboto" font-size="8.00"> &#160;&#160;&#160;&#160;&#160;</text>
<text text-anchor="start" x="90" y="-166.1" font-family="Roboto" font-size="8.00">CharField</text>
<text text-anchor="start" x="128" y="-166.1" font-family="Roboto" font-size="8.00"> &#160;&#160;&#160;&#160;&#160;</text>
<text text-anchor="start" x="20" y="-153.1" font-family="Roboto" font-size="8.00"> &#160;&#160;&#160;&#160;&#160;</text>
<text text-anchor="start" x="34" y="-153.1" font-family="Roboto" font-size="8.00">price</text>
<text text-anchor="start" x="55" y="-153.1" font-family="Roboto" font-size="8.00"> &#160;&#160;&#160;&#160;&#160;</text>
<text text-anchor="start" x="76" y="-153.1" font-family="Roboto" font-size="8.00"> &#160;&#160;&#160;&#160;&#160;</text>
<text text-anchor="start" x="90" y="-153.1" font-family="Roboto" font-size="8.00">IntegerField</text>
<text text-anchor="start" x="139" y="-153.1" font-family="Roboto" font-size="8.00"> &#160;&#160;&#160;&#160;&#160;</text>
<polygon fill="none" stroke="black" points="16.5,-146.5 16.5,-208.5 165.5,-208.5 165.5,-146.5 16.5,-146.5"/>
</g>
<!-- self_order_models_ToppingOrder -->
<g id="node3" class="node">
<title>self_order_models_ToppingOrder</title>
<polygon fill="white" stroke="transparent" points="69,-268 69,-343 243,-343 243,-268 69,-268"/>
<polygon fill="#1b563f" stroke="transparent" points="70,-320.5 70,-341.5 242,-341.5 242,-320.5 70,-320.5"/>
<text text-anchor="start" x="87" y="-329.5" font-family="Roboto" font-size="8.00"> &#160;&#160;&#160;&#160;&#160;</text>
<text text-anchor="start" x="101" y="-329.5" font-family="Roboto" font-weight="bold" font-size="10.00" fill="white"> &#160;&#160;&#160;&#160;&#160;ToppingOrder &#160;&#160;&#160;&#160;&#160;</text>
<text text-anchor="start" x="72" y="-313.1" font-family="Roboto" font-size="8.00"> &#160;&#160;&#160;&#160;&#160;</text>
<text text-anchor="start" x="86" y="-313.1" font-family="Roboto" font-weight="bold" font-size="8.00">id</text>
<text text-anchor="start" x="96" y="-313.1" font-family="Roboto" font-size="8.00"> &#160;&#160;&#160;&#160;&#160;</text>
<text text-anchor="start" x="141" y="-313.1" font-family="Roboto" font-size="8.00"> &#160;&#160;&#160;&#160;&#160;</text>
<text text-anchor="start" x="155" y="-313.1" font-family="Roboto" font-weight="bold" font-size="8.00">BigAutoField</text>
<text text-anchor="start" x="214" y="-313.1" font-family="Roboto" font-size="8.00"> &#160;&#160;&#160;&#160;&#160;</text>
<text text-anchor="start" x="72" y="-300.1" font-family="Roboto" font-size="8.00"> &#160;&#160;&#160;&#160;&#160;</text>
<text text-anchor="start" x="86" y="-300.1" font-family="Roboto" font-weight="bold" font-size="8.00">order</text>
<text text-anchor="start" x="111" y="-300.1" font-family="Roboto" font-size="8.00"> &#160;&#160;&#160;&#160;&#160;</text>
<text text-anchor="start" x="141" y="-300.1" font-family="Roboto" font-size="8.00"> &#160;&#160;&#160;&#160;&#160;</text>
<text text-anchor="start" x="155" y="-300.1" font-family="Roboto" font-weight="bold" font-size="8.00">ForeignKey (id)</text>
<text text-anchor="start" x="226" y="-300.1" font-family="Roboto" font-size="8.00"> &#160;&#160;&#160;&#160;&#160;</text>
<text text-anchor="start" x="72" y="-287.1" font-family="Roboto" font-size="8.00"> &#160;&#160;&#160;&#160;&#160;</text>
<text text-anchor="start" x="86" y="-287.1" font-family="Roboto" font-weight="bold" font-size="8.00">topping</text>
<text text-anchor="start" x="123" y="-287.1" font-family="Roboto" font-size="8.00"> &#160;&#160;&#160;&#160;&#160;</text>
<text text-anchor="start" x="141" y="-287.1" font-family="Roboto" font-size="8.00"> &#160;&#160;&#160;&#160;&#160;</text>
<text text-anchor="start" x="155" y="-287.1" font-family="Roboto" font-weight="bold" font-size="8.00">ForeignKey (id)</text>
<text text-anchor="start" x="226" y="-287.1" font-family="Roboto" font-size="8.00"> &#160;&#160;&#160;&#160;&#160;</text>
<text text-anchor="start" x="72" y="-274.1" font-family="Roboto" font-size="8.00"> &#160;&#160;&#160;&#160;&#160;</text>
<text text-anchor="start" x="86" y="-274.1" font-family="Roboto" font-size="8.00">quantity</text>
<text text-anchor="start" x="120" y="-274.1" font-family="Roboto" font-size="8.00"> &#160;&#160;&#160;&#160;&#160;</text>
<text text-anchor="start" x="141" y="-274.1" font-family="Roboto" font-size="8.00"> &#160;&#160;&#160;&#160;&#160;</text>
<text text-anchor="start" x="155" y="-274.1" font-family="Roboto" font-size="8.00">IntegerField</text>
<text text-anchor="start" x="204" y="-274.1" font-family="Roboto" font-size="8.00"> &#160;&#160;&#160;&#160;&#160;</text>
<polygon fill="none" stroke="black" points="69,-268 69,-343 243,-343 243,-268 69,-268"/>
</g>
<!-- self_order_models_ToppingOrder&#45;&gt;self_order_models_Topping -->
<g id="edge1" class="edge">
<title>self_order_models_ToppingOrder&#45;&gt;self_order_models_Topping</title>
<path fill="none" stroke="black" d="M131.2,-256.43C123.68,-241.84 115.57,-226.12 108.62,-212.65"/>
<ellipse fill="black" stroke="black" cx="133.24" cy="-260.39" rx="4" ry="4"/>
<text text-anchor="middle" x="173" y="-239.6" font-family="Roboto" font-size="8.00"> topping (toppingorder)</text>
</g>
<!-- self_order_models_Order -->
<g id="node4" class="node">
<title>self_order_models_Order</title>
<polygon fill="white" stroke="transparent" points="200,-140 200,-215 414,-215 414,-140 200,-140"/>
<polygon fill="#1b563f" stroke="transparent" points="201,-192.5 201,-213.5 413,-213.5 413,-192.5 201,-192.5"/>
<text text-anchor="start" x="260.5" y="-201.5" font-family="Roboto" font-size="8.00"> &#160;&#160;&#160;&#160;&#160;</text>
<text text-anchor="start" x="274.5" y="-201.5" font-family="Roboto" font-weight="bold" font-size="10.00" fill="white"> &#160;&#160;&#160;&#160;&#160;Order &#160;&#160;&#160;&#160;&#160;</text>
<text text-anchor="start" x="203" y="-185.1" font-family="Roboto" font-size="8.00"> &#160;&#160;&#160;&#160;&#160;</text>
<text text-anchor="start" x="217" y="-185.1" font-family="Roboto" font-weight="bold" font-size="8.00">id</text>
<text text-anchor="start" x="227" y="-185.1" font-family="Roboto" font-size="8.00"> &#160;&#160;&#160;&#160;&#160;</text>
<text text-anchor="start" x="280" y="-185.1" font-family="Roboto" font-size="8.00"> &#160;&#160;&#160;&#160;&#160;</text>
<text text-anchor="start" x="294" y="-185.1" font-family="Roboto" font-weight="bold" font-size="8.00">BigAutoField</text>
<text text-anchor="start" x="353" y="-185.1" font-family="Roboto" font-size="8.00"> &#160;&#160;&#160;&#160;&#160;</text>
<text text-anchor="start" x="203" y="-172.1" font-family="Roboto" font-size="8.00"> &#160;&#160;&#160;&#160;&#160;</text>
<text text-anchor="start" x="217" y="-172.1" font-family="Roboto" font-weight="bold" font-size="8.00">item</text>
<text text-anchor="start" x="238" y="-172.1" font-family="Roboto" font-size="8.00"> &#160;&#160;&#160;&#160;&#160;</text>
<text text-anchor="start" x="280" y="-172.1" font-family="Roboto" font-size="8.00"> &#160;&#160;&#160;&#160;&#160;</text>
<text text-anchor="start" x="294" y="-172.1" font-family="Roboto" font-weight="bold" font-size="8.00">ForeignKey (id)</text>
<text text-anchor="start" x="365" y="-172.1" font-family="Roboto" font-size="8.00"> &#160;&#160;&#160;&#160;&#160;</text>
<text text-anchor="start" x="203" y="-159.1" font-family="Roboto" font-size="8.00"> &#160;&#160;&#160;&#160;&#160;</text>
<text text-anchor="start" x="217" y="-159.1" font-family="Roboto" font-size="8.00" fill="#7b7b7b">ordered_at</text>
<text text-anchor="start" x="262" y="-159.1" font-family="Roboto" font-size="8.00"> &#160;&#160;&#160;&#160;&#160;</text>
<text text-anchor="start" x="280" y="-159.1" font-family="Roboto" font-size="8.00"> &#160;&#160;&#160;&#160;&#160;</text>
<text text-anchor="start" x="294" y="-159.1" font-family="Roboto" font-size="8.00" fill="#7b7b7b">DateTimeField</text>
<text text-anchor="start" x="352" y="-159.1" font-family="Roboto" font-size="8.00"> &#160;&#160;&#160;&#160;&#160;</text>
<text text-anchor="start" x="203" y="-146.1" font-family="Roboto" font-size="8.00"> &#160;&#160;&#160;&#160;&#160;</text>
<text text-anchor="start" x="217" y="-146.1" font-family="Roboto" font-size="8.00">table_no</text>
<text text-anchor="start" x="253" y="-146.1" font-family="Roboto" font-size="8.00"> &#160;&#160;&#160;&#160;&#160;</text>
<text text-anchor="start" x="280" y="-146.1" font-family="Roboto" font-size="8.00"> &#160;&#160;&#160;&#160;&#160;</text>
<text text-anchor="start" x="294" y="-146.1" font-family="Roboto" font-size="8.00">PositiveSmallIntegerField</text>
<text text-anchor="start" x="397" y="-146.1" font-family="Roboto" font-size="8.00"> &#160;&#160;&#160;&#160;&#160;</text>
<polygon fill="none" stroke="black" points="200,-140 200,-215 414,-215 414,-140 200,-140"/>
</g>
<!-- self_order_models_ToppingOrder&#45;&gt;self_order_models_Order -->
<g id="edge2" class="edge">
<title>self_order_models_ToppingOrder&#45;&gt;self_order_models_Order</title>
<path fill="none" stroke="black" d="M211.13,-258.49C226.55,-245.63 243.2,-231.74 258.22,-219.2"/>
<ellipse fill="black" stroke="black" cx="207.68" cy="-261.37" rx="4" ry="4"/>
<text text-anchor="middle" x="283" y="-239.6" font-family="Roboto" font-size="8.00"> order (topping_orders)</text>
</g>
<!-- self_order_models_Order&#45;&gt;self_order_models_Item -->
<g id="edge3" class="edge">
<title>self_order_models_Order&#45;&gt;self_order_models_Item</title>
<path fill="none" stroke="black" d="M307,-127.76C307,-115.75 307,-103.01 307,-91.42"/>
<ellipse fill="black" stroke="black" cx="307" cy="-131.94" rx="4" ry="4"/>
<text text-anchor="middle" x="332.5" y="-111.6" font-family="Roboto" font-size="8.00"> item (order)</text>
</g>
</g>
</svg>
